<?xml version="1.0" encoding="UTF-8" standalone="no"?>
<svg
   xmlns:dc="http://purl.org/dc/elements/1.1/"
   xmlns:cc="http://creativecommons.org/ns#"
   xmlns:rdf="http://www.w3.org/1999/02/22-rdf-syntax-ns#"
   xmlns:svg="http://www.w3.org/2000/svg"
   xmlns="http://www.w3.org/2000/svg"
   xmlns:xlink="http://www.w3.org/1999/xlink"
   xmlns:sodipodi="http://sodipodi.sourceforge.net/DTD/sodipodi-0.dtd"
   xmlns:inkscape="http://www.inkscape.org/namespaces/inkscape"
   height="400"
   width="450"
   id="svg2"
   version="1.1"
   inkscape:version="0.47 r22583"
   sodipodi:docname="Broom_icon.svg">
  <metadata
     id="metadata115">
    <rdf:RDF>
      <cc:Work
         rdf:about="">
        <dc:format>image/svg+xml</dc:format>
        <dc:type
           rdf:resource="http://purl.org/dc/dcmitype/StillImage" />
        <dc:title></dc:title>
      </cc:Work>
    </rdf:RDF>
  </metadata>
  <sodipodi:namedview
     pagecolor="#ffffff"
     bordercolor="#666666"
     borderopacity="1"
     objecttolerance="10"
     gridtolerance="10"
     guidetolerance="10"
     inkscape:pageopacity="0"
     inkscape:pageshadow="2"
     inkscape:window-width="1280"
     inkscape:window-height="968"
     id="namedview113"
     showgrid="false"
     inkscape:zoom="0.59"
     inkscape:cx="-27.354192"
     inkscape:cy="200.12632"
     inkscape:window-x="-4"
     inkscape:window-y="-4"
     inkscape:window-maximized="1"
     inkscape:current-layer="svg2" />
  <defs
     id="defs4">
    <inkscape:perspective
       sodipodi:type="inkscape:persp3d"
       inkscape:vp_x="0 : 200 : 1"
       inkscape:vp_y="0 : 1000 : 0"
       inkscape:vp_z="400 : 200 : 1"
       inkscape:persp3d-origin="200 : 133.33333 : 1"
       id="perspective117" />
    <linearGradient
       id="c">
      <stop
         stop-color="#fdde61"
         offset="0"
         id="stop7" />
      <stop
         stop-color="#cc9021"
         offset="1"
         id="stop9" />
    </linearGradient>
    <linearGradient
       id="d">
      <stop
         stop-color="#974f05"
         offset="0"
         id="stop12" />
      <stop
         stop-color="#deb764"
         offset="1"
         id="stop14" />
    </linearGradient>
    <linearGradient
       id="b">
      <stop
         stop-color="#fff"
         stop-opacity="0.6"
         offset="0"
         id="stop17" />
      <stop
         stop-color="#fff"
         stop-opacity="0"
         offset="1"
         id="stop19" />
    </linearGradient>
    <linearGradient
       id="a">
      <stop
         stop-color="#b77617"
         offset="0"
         id="stop22" />
      <stop
         stop-color="#fff"
         stop-opacity=".4742"
         offset="1"
         id="stop24" />
    </linearGradient>
    <linearGradient
       id="e">
      <stop
         stop-color="#96af96"
         offset="0"
         id="stop27" />
      <stop
         stop-color="#96af96"
         stop-opacity="0"
         offset="1"
         id="stop29" />
    </linearGradient>
    <linearGradient
       id="y"
       y2="255.8"
       xlink:href="#e"
       gradientUnits="userSpaceOnUse"
       x2="93.5"
       y1="223.8"
       x1="28.99"
       gradientTransform="translate(-11.268695,-6.3131609)" />
    <linearGradient
       id="x"
       y2="314.29999"
       xlink:href="#e"
       gradientUnits="userSpaceOnUse"
       x2="105.5"
       y1="270.29999"
       x1="62.91"
       gradientTransform="translate(-11.268695,-6.3131609)" />
    <linearGradient
       id="w"
       y2="203.8"
       xlink:href="#a"
       gradientUnits="userSpaceOnUse"
       x2="148"
       y1="315.5"
       x1="130.2"
       gradientTransform="translate(-11.268695,-6.3131609)" />
    <linearGradient
       id="v"
       y2="119.2"
       xlink:href="#a"
       gradientUnits="userSpaceOnUse"
       x2="236"
       y1="290"
       x1="159.2"
       gradientTransform="translate(-11.268695,-6.3131609)" />
    <linearGradient
       id="u"
       y2="198.8"
       xlink:href="#a"
       gradientUnits="userSpaceOnUse"
       x2="209.5"
       y1="312.79999"
       x1="194.60001"
       gradientTransform="translate(-11.268695,-6.3131609)" />
    <linearGradient
       id="t"
       y2="141.2"
       xlink:href="#a"
       gradientUnits="userSpaceOnUse"
       x2="261"
       y1="307.79999"
       x1="233.89999"
       gradientTransform="translate(-11.268695,-6.3131609)" />
    <linearGradient
       id="s"
       y2="130"
       xlink:href="#a"
       gradientUnits="userSpaceOnUse"
       x2="299"
       y1="314.5"
       x1="280.20001"
       gradientTransform="translate(-11.268695,-6.3131609)" />
    <linearGradient
       id="r"
       y2="140.8"
       xlink:href="#a"
       gradientUnits="userSpaceOnUse"
       x2="318.5"
       y1="275.79999"
       x1="297.89999"
       gradientTransform="translate(-11.268695,-6.3131609)" />
    <linearGradient
       id="q"
       y2="313.60001"
       xlink:href="#b"
       gradientUnits="userSpaceOnUse"
       x2="313.5"
       y1="313.60001"
       x1="130.7"
       gradientTransform="translate(-11.268695,-6.3131609)" />
    <linearGradient
       id="p"
       y2="226.60001"
       xlink:href="#b"
       gradientUnits="userSpaceOnUse"
       x2="196.10001"
       y1="82.800003"
       x1="311.70001"
       gradientTransform="translate(-11.268695,-6.3131609)" />
    <linearGradient
       id="o"
       y2="235.2"
       gradientUnits="userSpaceOnUse"
       x2="329.5"
       y1="150.7"
       x1="170.10001"
       gradientTransform="translate(-11.268695,-6.3131609)">
      <stop
         stop-color="#e3140f"
         offset="0"
         id="stop42" />
      <stop
         stop-color="#fee7e7"
         offset=".25"
         id="stop44" />
      <stop
         stop-color="#e3140f"
         offset="1"
         id="stop46" />
    </linearGradient>
    <linearGradient
       id="n"
       y2="86.18"
       xlink:href="#d"
       gradientUnits="userSpaceOnUse"
       x2="297.89999"
       y1="377"
       x1="235.5"
       gradientTransform="translate(-11.268695,-6.3131609)" />
    <linearGradient
       id="m"
       y2="81.459999"
       xlink:href="#c"
       gradientUnits="userSpaceOnUse"
       x2="262.10001"
       y1="370"
       x1="262.10001"
       gradientTransform="translate(-11.268695,-6.3131609)" />
    <radialGradient
       id="f"
       gradientUnits="userSpaceOnUse"
       cy="348"
       cx="220"
       gradientTransform="matrix(0.6679,0,0,0.19083105,61.791305,273.23997)"
       r="268">
      <stop
         stop-color="#474747"
         offset="0"
         id="stop51" />
      <stop
         stop-color="#595959"
         offset=".25"
         id="stop53" />
      <stop
         stop-color="#a3a3a3"
         stop-opacity=".4980"
         offset=".7188"
         id="stop55" />
      <stop
         stop-color="#fff"
         stop-opacity="0"
         offset="1"
         id="stop57" />
    </radialGradient>
    <linearGradient
       id="l"
       y2="61.5"
       xlink:href="#d"
       gradientUnits="userSpaceOnUse"
       x2="324.5"
       y1="112.2"
       x1="324.5"
       gradientTransform="translate(-11.268695,-6.3131609)" />
    <linearGradient
       id="k"
       y2="73.790001"
       xlink:href="#c"
       gradientUnits="userSpaceOnUse"
       x2="294.70001"
       y1="108.6"
       x1="335"
       gradientTransform="translate(-11.268695,-6.3131609)" />
    <linearGradient
       id="j"
       y2="85.68"
       xlink:href="#b"
       gradientUnits="userSpaceOnUse"
       x2="319.10001"
       y1="73.860001"
       x1="292"
       gradientTransform="translate(-11.268695,-6.3131609)" />
    <linearGradient
       id="i"
       y2="55.200001"
       xlink:href="#b"
       gradientUnits="userSpaceOnUse"
       x2="336.5"
       y1="21.08"
       x1="363.20001"
       gradientTransform="translate(-11.268695,-6.3131609)" />
    <linearGradient
       id="h"
       y2="14.32"
       gradientUnits="userSpaceOnUse"
       x2="370.20001"
       y1="84.82"
       x1="314"
       gradientTransform="translate(-11.268695,-6.3131609)">
      <stop
         stop-color="#4a3302"
         offset="0"
         id="stop64" />
      <stop
         stop-color="#c99414"
         offset="1"
         id="stop66" />
    </linearGradient>
    <linearGradient
       id="g"
       y2="53.66"
       gradientUnits="userSpaceOnUse"
       x2="331.29999"
       y1="61.41"
       x1="340.60001"
       gradientTransform="translate(-11.268695,-6.3131609)">
      <stop
         stop-color="#c5942f"
         offset="0"
         id="stop69" />
      <stop
         stop-color="#80630e"
         offset="1"
         id="stop71" />
    </linearGradient>
    <inkscape:perspective
       id="perspective3026"
       inkscape:persp3d-origin="0.5 : 0.33333333 : 1"
       inkscape:vp_z="1 : 0.5 : 1"
       inkscape:vp_y="0 : 1000 : 0"
       inkscape:vp_x="0 : 0.5 : 1"
       sodipodi:type="inkscape:persp3d" />
    <linearGradient
       x1="41.194874"
       y1="616.47717"
       x2="118.93135"
       y2="527.55511"
       id="g1"
       gradientUnits="userSpaceOnUse"
       gradientTransform="matrix(4.556763,0,0,-4.315033,37.49756,2758.519)">
      <stop
         style="stop-color:#bb0000;stop-opacity:1.0000000"
         offset="0.00000000"
         id="stop1605" />
      <stop
         style="stop-color:#5f0000;stop-opacity:1.0000000"
         offset="1.0000000"
         id="stop1607" />
    </linearGradient>
    <linearGradient
       x1="530.80951"
       y1="486.63101"
       x2="174.80548"
       y2="211.22995"
       id="g2"
       gradientUnits="userSpaceOnUse"
       gradientTransform="matrix(0.960006,0,0,0.960006,11.68071,9.787565)">
      <stop
         style="stop-color:#9a0000;stop-opacity:1.0000000"
         offset="0.00000000"
         id="stop1610" />
      <stop
         style="stop-color:#f22803;stop-opacity:1.0000000"
         offset="1.0000000"
         id="stop1612" />
    </linearGradient>
    <linearGradient
       x1="187.87357"
       y1="224.59892"
       x2="581.83746"
       y2="483.10001"
       id="g3"
       gradientUnits="userSpaceOnUse"
       gradientTransform="matrix(0.960006,0,0,0.960006,11.68071,9.787558)">
      <stop
         style="stop-color:#ec6c60;stop-opacity:1.0000000"
         offset="0.00000000"
         id="stop1615" />
      <stop
         style="stop-color:#d11412;stop-opacity:1.0000000"
         offset="1.0000000"
         id="stop1617" />
    </linearGradient>
    <linearGradient
       x1="250.39845"
       y1="101.53633"
       x2="412.0943"
       y2="264.54187"
       id="g4"
       gradientUnits="userSpaceOnUse"
       gradientTransform="matrix(0.960006,0,0,0.960006,11.68071,9.787565)">
      <stop
         style="stop-color:#ffd9d9;stop-opacity:1.0000000"
         offset="0.00000000"
         id="stop1620" />
      <stop
         style="stop-color:#ff2727;stop-opacity:1.0000000"
         offset="1.0000000"
         id="stop1622" />
    </linearGradient>
    <radialGradient
       cx="295.47125"
       cy="186.09634"
       r="179.55"
       id="g5"
       gradientUnits="userSpaceOnUse"
       gradientTransform="matrix(1.14292e-8,1.531256,-0.876504,-2.165967e-5,462.7486,-245.0023)">
      <stop
         style="stop-color:#ffffff;stop-opacity:1.0000000"
         offset="0.00000000"
         id="stop1625" />
      <stop
         style="stop-color:#ffffff;stop-opacity:1.0000000"
         offset="0.50000000"
         id="stop1627" />
      <stop
         style="stop-color:#d5d5d5;stop-opacity:1.0000000"
         offset="1.0000000"
         id="stop1629" />
    </radialGradient>
  </defs>
  <path
     d="m 387.7265,339.66324 a 178.9972,51.144 0 0 1 -357.994395,0 178.9972,51.144 0 1 1 357.994395,0 z"
     id="path73"
     style="fill:url(#f)" />
  <path
     d="m 150.2313,178.18684 c -24.6,-61.6 -108.299995,-40.1 -84.999995,19 -31.79,-2.8 -42.2,17.5 -25.5,44 -47.9199998,6.9 -41.7099999,47.5 -14.5,65 l 134.999995,2.5"
     id="path75"
     style="fill:url(#y)" />
  <path
     d="m 127.2313,226.68684 c -31.499995,-11.3 -43.119995,13.2 -42.999995,32.5 -20.65,-4.9 -34.52,9.6 -35.5,28 -37.14,-3.1 -48.09999986,53.9 0,55 l 112.499995,-74"
     id="path77"
     style="fill:url(#x)" />
  <path
     d="m 155.2313,364.88684 c 0,0 -63.499995,-10.6 -63.499995,-75.1 0,-66.6 93.799995,-179.1 134.499995,-203.100001 27.1,-15.99 47,-16.5 76,-11.5 29,5 39.5,26.500001 39.5,43.000001 0,32 -37.5,98.7 -37.5,129.5 0,57 71,50.5 71,50.5 -4,16.5 -20.4,22.3 -39,24 5.8,5.4 12.5,11 27.5,19 -42.1,3.8 -44.3,-2.9 -58,-6.5 4.9,7.7 10.6,16.7 18.5,25 -22.1,1 -41.4,-6.6 -59.5,-17.5 1.3,9.3 1.4,18.7 6.5,28 -28,-5.3 -53.2,-15.1 -74.5,-31 0.9,7.9 1.9,15.9 8,29 -16.7,-4.1 -34.3,-13 -55,-37 -1.8,8.5 2.1,21.3 5.5,33.7 z"
     id="path79"
     style="fill:url(#n)" />
  <path
     d="m 147.7313,358.38684 c -13.6,-7.1 -51.999995,-15.1 -51.999995,-70.1 0,-66.6 91.799995,-173.6 132.499995,-197.600001 27.1,-15.99 44,-17.5 73,-12.5 29,5 36,25.000001 36,41.500001 0,32 -37,97.7 -37,128.5 0,57 67.5,54.5 67.5,54.5 -10,14 -21.4,13.8 -40,15.5 5.8,5.4 5,11 20,19 -19.1,2.8 -34.3,-4.4 -47.5,-8.5 4.9,7.7 5.1,17.2 13,25.5 -20.6,1 -40.9,-12.6 -52,-22 -1.7,11.3 -0.1,23.7 1.5,31 -27,-5.3 -55.7,-20.1 -70,-34.5 -1.6,9.4 0.4,21.4 4.5,32.5 -17.1,-4.4 -35.3,-20.8 -50.5,-41.5 -1.8,6.4 -2.4,21.9 1,38.7 z"
     id="path81"
     style="fill:url(#m)" />
  <path
     d="m 136.7313,215.68684 c -25.3,43 -26.6,71.8 -16,93.5 -6.1,-39.1 5.3,-66.1 16,-93.5 z"
     id="path83"
     style="fill:url(#w)" />
  <path
     d="m 218.7313,144.18684 c -36,42.8 -82.8,82.7 -68,139.5 -3.6,-48.4 29.8,-95.4 68,-139.5 z"
     id="path85"
     style="fill:url(#v)" />
  <path
     d="m 201.2313,200.68684 c -19.7,34.8 -30.3,70.7 -15.5,109.5 -5.3,-39.5 2.2,-75.3 15.5,-109.5 z"
     id="path87"
     style="fill:url(#u)" />
  <path
     d="m 249.7313,153.68684 c -24.9,48.6 -46.5,96.9 -23,141.5 -11.4,-47.2 2.7,-94.3 23,-141.5 z"
     id="path89"
     style="fill:url(#t)" />
  <path
     d="m 292.7313,129.18684 c -24.1,53.2 -50.3,105.8 -18.5,179 -17.4,-65.2 -6.7,-117.8 18.5,-179 z"
     id="path91"
     style="fill:url(#s)" />
  <path
     d="m 311.2313,140.68684 c -26.2,55.3 -27.5,92 -22,123.5 1.1,-41.2 10.4,-82.3 22,-123.5 z"
     id="path93"
     style="fill:url(#r)" />
  <path
     d="m 140.2313,345.68684 c -1.6,-19.6 1.6,-30.9 5.6,-32.2 2.9,-1 21.1,28.4 43.4,38.2 0,0 -3.6,-26 0.5,-28.2 2.8,-1.6 21.1,13.9 49,11.2 33.2,-60.9 63.5,-20.4 63.5,-51.5 0,-48.5 -174.2,1.1 -182.4,31.6 -3.1,11.7 12.7,26.1 20.4,30.9 z"
     id="path95"
     style="fill:url(#q)" />
  <path
     d="m 180.1313,128.68684 -27.6,33.2 c 6.8,33.7 55.6,63.6 161.6,42.8 l 11.7,-30.8 c -100.5,14.4 -136.4,-6 -145.7,-45.2 z"
     id="path97"
     style="fill:url(#o);stroke:#991d03;stroke-width:2.5;stroke-linejoin:round" />
  <path
     d="m 249.2313,188.18684 c -118.6,110 -112.8,20.4 -69,-44.5 72.4,-107.400001 150,-61.300001 146.5,-30 -7,62 -20.7,21.8 -77.5,74.5 z"
     id="path99"
     style="fill:url(#p)" />
  <path
     d="m 283.2313,98.086841 c 47.7,25.299999 70.6,-18.080002 35.4,-35.680002 -47.6,-23.72 -70.7,17.02 -35.4,35.680002 z"
     id="path101"
     style="fill:url(#l)" />
  <path
     d="m 286.2313,95.186841 c 42.5,22.599999 62.7,-15.000002 30.4,-30.620002 -41.5,-20.02 -60.9,14.33 -30.4,30.620002 z"
     id="path103"
     style="fill:url(#k)" />
  <path
     d="m 286.3313,81.016839 c 31.4,12.77 46.7,-6.68 22.8,-15.49 -30.7,-11.29 -45.4,6.31 -22.8,15.49 z"
     id="path105"
     style="fill:url(#j)" />
  <path
     d="m 338.7313,6.1868393 h 39 l -64,74.4999997 c -14.5,2.64 -19.5,-3 -19.5,-13 l 44.5,-61.4999997 z"
     id="path107"
     style="fill:url(#h)" />
  <path
     d="m 340.3313,12.726839 h 26.5 l -54.1,62.95 c -9.1,2.17 -14.1,0 -13.4,-8.44 l 41,-54.51 z"
     id="path109"
     style="fill:url(#g)" />
  <path
     d="m 341.4313,12.906839 14.7,-0.18 -36.2,46.15 c -9,7.22 -15.6,4.1 4,-23.29 l 17.5,-22.68 z"
     id="path111"
     style="fill:url(#i)" />
  <g
     transform="matrix(0.33900087,0,0,0.33900087,242.69376,225.18077)"
     id="g1664">
    <path
       d="m 287.0439,30.68461 c 0,0 -260.16152,427.20249 -260.16152,427.20249 -4.99204,8.1601 -4.99204,18.2401 0,26.4002 4.89603,8.064 14.11208,13.1521 24.09614,13.1521 l 520.32308,0 c 9.888,0 19.1041,-5.0881 24.0961,-13.1521 4.896,-8.1601 4.896,-18.2401 0,-26.4002 L 335.2362,30.68461 c -4.992,-8.16004 -14.2081,-13.24807 -24.0962,-13.24807 -9.888,0 -19.1041,5.08803 -24.0961,13.24807 z"
       style="fill-opacity:0.17857098"
       id="path1631" />
    <path
       d="m 275.5863,23.03565 c 0,0 -260.16157,427.20245 -260.16157,427.20245 -4.99203,8.1601 -4.99203,18.2402 0,26.4002 4.89603,8.0641 14.11208,13.1521 24.09614,13.1521 l 520.32303,0 c 9.8881,0 19.1041,-5.088 24.0962,-13.1521 4.896,-8.16 4.896,-18.2401 0,-26.4002 L 323.7785,23.03565 c -4.992,-8.16005 -14.208,-13.248082 -24.0961,-13.248082 -9.8881,0 -19.1041,5.088032 -24.0961,13.248082 z"
       style="fill:url(#g1)"
       id="path1633" />
    <path
       d="m 299.6824,31.7717 c -1.632,0 -3.168,0.864 -4.032,2.20801 L 165.5696,247.581 35.48885,461.1822 c -0.86401,1.344 -0.86401,3.072 0,4.416 0.864,1.344 2.40001,2.208 4.03202,2.208 l 520.32303,0 c 1.632,0 3.168,-0.864 4.0321,-2.208 0.864,-1.344 0.864,-3.072 0,-4.416 L 303.7144,33.97971 c -0.864,-1.34401 -2.4,-2.20801 -4.032,-2.20801 z"
       style="fill:url(#g2)"
       id="path1635" />
    <path
       d="m 299.6464,31.7717 c -1.632,0 -3.1681,0.864 -4.0321,2.20801 L 165.5336,247.581 35.45283,461.1822 c -0.86401,1.344 -0.86401,3.072 0,4.416 0.864,1.344 2.40001,2.208 4.03202,2.208 l 520.32305,0 c 1.632,0 3.168,-0.864 4.032,-2.208 0.864,-1.344 0.864,-3.072 0,-4.416 L 303.6784,33.97971 c -0.864,-1.34401 -2.4,-2.20801 -4.032,-2.20801 z"
       style="fill:none;stroke:url(#g3);stroke-width:11.52000046;stroke-linejoin:round"
       id="path1637" />
    <path
       d="m 299.7514,39.46512 c -1.5457,0.0764 -2.9865,0.93901 -3.81,2.22002 L 165.8606,255.2864 147.7405,285.0466 c 44.1342,26.493 95.7728,41.7602 150.9609,41.7602 55.9718,0 108.3072,-15.6775 152.8509,-42.8702 L 304.0114,41.68514 c -0.864,-1.34402 -2.388,-2.22002 -4.02,-2.22002 -0.0765,0 -0.164,-0.0038 -0.24,0 z"
       style="fill:url(#g4);stroke-width:10;stroke-linejoin:round"
       id="path1639" />
    <path
       d="M 286.4344,145.7244 129.2814,403.678 c -2.688,4.5121 -2.688,10.0801 0,14.4961 2.6881,4.512 7.7761,7.2961 13.2481,7.2961 l 314.21,0 c 5.472,0 10.5601,-2.7841 13.2481,-7.2961 2.688,-4.512 2.688,-9.984 0,-14.4961 L 312.9306,145.7244 c -2.688,-4.512 -7.7761,-7.296 -13.2481,-7.296 -5.472,0 -10.5601,2.784 -13.2481,7.296 z"
       style="fill:url(#g5)"
       id="path1641" />
    <path
       d="m 291.3968,416.3174 c -9.0037,-4.3123 -15.8606,-14.6812 -15.8606,-23.9841 0,-17.3217 18.1004,-30.3699 35.2258,-25.3935 11.5531,3.3573 19.4054,13.7831 19.3092,25.6376 -0.0821,10.07 -4.4406,17.4882 -13.3371,22.6999 -6.8099,3.9892 -18.2035,4.4568 -25.3373,1.0401 z m 2.0464,-68.398 c -1.1255,-0.6185 -3.7763,-2.7721 -5.8903,-4.7857 -7.3865,-7.0354 -7.3773,-6.9735 -12.1922,-82.2522 -4.2802,-66.9174 -4.3156,-67.9572 -2.479,-72.764 4.1317,-10.8147 13.3379,-15.5503 28.6668,-14.7461 9.7437,0.5113 17.2478,3.9331 22.1255,10.0893 4.1664,5.2583 5.0722,8.2309 5.0684,16.6316 -0.004,9.1288 -5.8356,121.0778 -6.6645,127.9382 -1.0853,8.9851 -6.3313,16.2767 -14.0204,19.4872 -4.3938,1.8348 -11.6439,2.0341 -14.6143,0.4017 z"
       id="path1643" />
  </g>
</svg>
